HIERARCHY
ROOT hip
{
	OFFSET 0.000000 0.000000 0.000000 
	CHANNELS 6 Xposition Yposition Zposition Xrotation Zrotation Yrotation
	JOINT abdomen
	{
		OFFSET 0.000000 3.402643 0.000000 
		CHANNELS 3 Xrotation Zrotation Yrotation
		JOINT chest
		{
			OFFSET 0.000000 8.438565 -0.680529 
			CHANNELS 3 Xrotation Zrotation Yrotation
			JOINT neck
			{
				OFFSET 0.000000 10.207942 -0.272212 
				CHANNELS 3 Xrotation Zrotation Yrotation
				JOINT head
				{
					OFFSET 0.000000 3.130431 0.000000 
					CHANNELS 3 Xrotation Zrotation Yrotation
					End Site
					{
						OFFSET 0.000000 3.130435 0.000000 
					}
				}
			}
			JOINT lCollar
			{
				OFFSET 3.470700 6.669187 -0.816635 
				CHANNELS 3 Yrotation Zrotation Xrotation
				JOINT lShldr
				{
					OFFSET 3.198488 0.000000 0.000000 
					CHANNELS 3 Zrotation Yrotation Xrotation
					JOINT lForeArm
					{
						OFFSET 10.139888 0.000000 0.000000 
						CHANNELS 3 Yrotation Zrotation Xrotation
						JOINT lHand
						{
							OFFSET 8.370511 0.000000 0.000000 
							CHANNELS 3 Zrotation Yrotation Xrotation
							End Site
							{
								OFFSET 4.083176 0.000000 0.000000 
							}
						}
					}
				}
			}
			JOINT rCollar
			{
				OFFSET -3.470700 6.669187 -0.816635 
				CHANNELS 3 Yrotation Zrotation Xrotation
				JOINT rShldr
				{
					OFFSET -3.198488 0.000000 0.000000 
					CHANNELS 3 Zrotation Yrotation Xrotation
					JOINT rForeArm
					{
						OFFSET -10.139888 0.000000 0.000000 
						CHANNELS 3 Yrotation Zrotation Xrotation
						JOINT rHand
						{
							OFFSET -8.370511 0.000000 0.000000 
							CHANNELS 3 Zrotation Yrotation Xrotation
							End Site
							{
								OFFSET -4.083176 0.000000 0.000000 
							}
						}
					}
				}
			}
		}
	}
	JOINT lThigh
	{
		OFFSET 5.308129 -1.633274 1.361059 
		CHANNELS 3 Xrotation Zrotation Yrotation
		JOINT lShin
		{
			OFFSET -2.041588 -20.007561 0.000000 
			CHANNELS 3 Xrotation Zrotation Yrotation
			JOINT lFoot
			{
				OFFSET 0.000000 -19.190928 -1.224953 
				CHANNELS 3 Xrotation Yrotation Zrotation
				End Site
				{
					OFFSET 0.000000 -2.449906 4.627600 
				}
			}
		}
	}
	JOINT rThigh
	{
		OFFSET -5.308129 -1.633274 1.361059 
		CHANNELS 3 Xrotation Zrotation Yrotation
		JOINT rShin
		{
			OFFSET 2.041588 -20.007561 0.000000 
			CHANNELS 3 Xrotation Zrotation Yrotation
			JOINT rFoot
			{
				OFFSET 0.000000 -19.190928 -1.224953 
				CHANNELS 3 Xrotation Yrotation Zrotation
				End Site
				{
					OFFSET 0.000000 -2.449906 4.627600 
				}
			}
		}
	}
}
MOTION
Frames: 19
Frame Time: 0.011111
9.484711 51.521950 -2.477411 -2.447170 -2.219171 -33.054710 22.992628 -4.719901 -1.987290 -20.784910 0.768563 -0.185340 -11.092404 -6.757802 -1.953987 11.409435 13.819938 -4.347102 2.424333 -4.683778 1.783845 -61.836525 -31.122440 63.508041 -59.229591 9.205107 12.060642 8.524705 12.647240 -47.307995 -2.738486 -1.140572 2.095526 64.728409 18.882704 30.744596 61.862389 -9.396618 13.245895 -8.534408 -12.637552 31.117048 4.920311 2.644838 -0.587637 27.890635 -5.449079 -4.587297 -31.843708 3.229955 0.462906 -14.105067 -13.130879 10.719991 39.140442 4.710379 5.984240 -24.030945 -7.346333 -0.600456 
9.394192 51.524960 -2.423580 -2.471097 -2.177454 -33.075603 22.970871 -4.660470 -2.140617 -20.716499 0.748060 -0.232758 -11.089110 -6.700867 -1.865604 11.206492 13.631846 -4.188513 2.424333 -4.683778 1.783845 -61.658623 -31.192959 63.507961 -59.473034 9.222139 12.157991 8.524705 12.647240 -47.317760 -2.738486 -1.140572 2.095526 63.779350 18.936449 30.597435 63.814022 -9.460195 14.146178 -8.534408 -12.637552 30.980324 5.090495 2.633173 -0.606885 27.779408 -5.464035 -4.551105 -31.929373 3.253339 0.506971 -14.254018 -13.317958 10.738555 38.794754 4.729949 5.941418 -23.984512 -7.126620 -0.501512 
9.294049 51.521351 -2.372757 -2.502040 -2.113523 -33.136829 22.952045 -4.690864 -2.278793 -20.628641 0.767268 -0.261348 -11.183598 -6.627197 -1.766735 11.066668 13.494271 -4.006680 2.424333 -4.683778 1.783845 -61.361813 -31.294182 63.646442 -59.782433 9.252150 12.306093 8.524705 12.647240 -47.220104 -2.738486 -1.140572 2.095526 62.782074 19.078156 30.269182 65.772797 -9.448873 15.055463 -8.534408 -12.637552 30.716656 5.283184 2.606992 -0.737849 27.620300 -5.459153 -4.555403 -32.053810 3.281940 0.556576 -14.418236 -13.502390 10.857352 38.427593 4.769206 5.892869 -23.981981 -7.009094 -0.458634 
9.187893 51.506310 -2.310506 -2.554183 -2.158731 -33.310551 22.951731 -4.674890 -2.210222 -20.550491 0.758072 -0.250327 -11.113546 -6.631612 -1.705868 10.794843 13.548351 -3.909791 2.424333 -4.683778 1.783845 -61.064800 -31.385584 63.911884 -60.079655 9.272487 12.428241 8.524705 12.647240 -47.171272 -2.738486 -1.140572 2.095526 61.764111 19.180367 29.591532 67.790001 -9.359796 16.012640 -8.534408 -12.637552 30.374859 5.593008 2.615917 -0.712747 27.449728 -5.469478 -4.522582 -32.166378 3.458690 0.669535 -14.475438 -13.599190 11.073871 38.032799 4.788414 5.835746 -23.842852 -7.010237 -0.415626 
9.082335 51.500301 -2.254871 -2.591816 -2.190406 -33.416336 22.988560 -4.612344 -2.263721 -20.599447 0.815997 -0.271814 -11.006681 -6.781293 -1.582738 10.671167 13.790478 -3.682479 2.424333 -4.683778 1.783845 -60.983959 -31.308399 63.748425 -60.294384 9.294643 12.531256 8.524705 12.647240 -47.307995 -2.738486 -1.140572 2.095526 60.606762 19.244566 28.937510 69.922829 -9.171644 17.055674 -8.534408 -12.637552 30.042826 5.861764 2.682508 -0.501456 27.240080 -5.473430 -4.495377 -32.097946 3.576380 0.708127 -14.572263 -13.686578 11.212667 37.645969 4.824027 5.783963 -23.576385 -7.120875 -0.399923 
8.977681 51.502701 -2.205551 -2.696101 -2.126048 -33.467346 23.097178 -4.652431 -2.429615 -20.619169 0.902880 -0.313146 -10.897028 -6.775761 -1.530856 10.317105 13.714380 -3.600976 2.424333 -4.683778 1.783845 -60.973537 -31.279221 63.357533 -60.473751 9.302457 12.604893 8.524705 12.647240 -47.708385 -2.738486 -1.140572 2.095526 59.421341 19.444862 28.171406 72.078903 -8.873543 18.138556 -8.534408 -12.637552 29.632669 6.162431 2.646060 -0.569667 27.038517 -5.488861 -4.461001 -32.188046 3.542540 0.733734 -14.706262 -13.915560 11.323026 37.259674 4.847012 5.748032 -23.445200 -7.118719 -0.388413 
8.869419 51.503006 -2.152623 -2.771120 -2.062548 -33.665886 23.119385 -4.725493 -2.482542 -20.531248 0.893596 -0.311553 -10.872550 -6.579903 -1.551149 9.964078 13.351965 -3.644381 2.424333 -4.683778 1.783845 -60.775043 -31.310827 63.215469 -60.655807 9.319051 12.697153 8.524705 12.647240 -48.079479 -2.738486 -1.140572 2.095526 58.326057 19.760330 27.138374 74.182022 -8.456114 19.215170 -8.534408 -12.637552 29.134623 6.477815 2.546533 -0.764894 26.778864 -5.492628 -4.429358 -32.464417 3.627114 0.820318 -14.910020 -14.090565 11.681020 36.921738 4.876740 5.717734 -23.345348 -7.202073 -0.389356 
8.748526 51.492779 -2.097590 -2.802850 -2.122516 -33.936481 23.166016 -4.663557 -2.505718 -20.521544 0.922527 -0.331545 -10.955784 -6.463796 -1.442910 9.914278 13.221800 -3.434527 2.424333 -4.683778 1.783845 -60.594898 -31.244539 63.000511 -60.911953 9.337717 12.814770 8.524705 12.647240 -48.059952 -2.738486 -1.140572 2.095526 57.132099 20.163834 26.081707 76.167374 -7.940408 20.268240 -8.534408 -12.637552 28.743998 6.807803 2.613850 -0.546399 26.526575 -5.507827 -4.409902 -32.491745 3.744762 0.922142 -15.080718 -14.077828 12.181554 36.585491 4.896004 5.665382 -23.285778 -7.437432 -0.467028 
8.636053 51.490978 -2.031729 -2.930088 -1.959162 -34.003132 23.208345 -4.779089 -2.748239 -20.590147 1.028435 -0.383852 -10.970661 -6.365373 -1.339844 9.855488 13.118728 -3.213311 2.424333 -4.683778 1.783845 -60.493744 -31.138262 62.675579 -61.144939 9.347792 12.913494 8.524705 12.647240 -47.972057 -2.738486 -1.140572 2.095526 55.877705 20.557085 24.872585 78.050201 -7.312184 21.319427 -8.534408 -12.637552 28.480328 7.144044 2.449349 -0.406401 26.263922 -5.527465 -4.371047 -32.376888 3.831163 0.923383 -15.282398 -14.452668 12.318742 36.287510 4.915798 5.644939 -23.288918 -7.508520 -0.478207 
8.516061 51.496990 -1.979101 -2.930700 -1.956117 -34.218567 23.227137 -4.761617 -2.713794 -20.648907 1.096611 -0.376731 -10.841550 -6.336693 -1.323039 9.588525 13.029374 -3.184906 2.424333 -4.683778 1.783845 -60.403011 -31.061167 62.399727 -61.348324 9.362514 13.008101 8.524705 12.647240 -47.981823 -2.738486 -1.140572 2.095526 54.642719 20.997841 23.364733 79.784233 -6.591158 22.348633 -8.534408 -12.637552 28.236187 7.423129 2.477375 -0.407057 26.012596 -5.537550 -4.340699 -32.486301 4.009342 1.050830 -15.517365 -14.550659 12.555354 35.930199 4.944749 5.593630 -23.271971 -7.496564 -0.470224 
8.392762 51.495190 -1.943014 -2.897605 -1.913484 -34.475296 23.187786 -4.762910 -2.712598 -20.707718 1.184327 -0.370225 -10.606518 -6.427537 -1.278741 9.275935 13.147916 -3.118565 2.424333 -4.683778 1.783845 -60.301731 -30.945118 62.099049 -61.604050 9.375837 13.117443 8.524705 12.647240 -47.581432 -2.738486 -1.140572 2.095526 53.407780 21.554649 21.726255 81.305771 -5.812624 23.320114 -8.534408 -12.637552 27.982279 7.642440 2.479105 -0.526725 25.739576 -5.557106 -4.300825 -32.675579 4.348321 1.280831 -15.822871 -14.624857 12.963080 35.573437 4.964666 5.548499 -23.047401 -7.700139 -0.491682 
8.270666 51.490978 -1.896100 -2.942070 -1.913157 -34.582867 23.260015 -4.635356 -2.930580 -20.727240 1.182270 -0.448730 -10.582897 -6.367497 -1.174545 9.168367 13.134025 -2.902737 2.424333 -4.683778 1.783845 -60.210869 -30.858248 61.530231 -61.837891 9.386315 13.225916 8.524705 12.647240 -47.298229 -2.738486 -1.140572 2.095526 52.224010 22.461554 19.985798 82.571091 -5.025580 24.219223 -8.534408 -12.637552 27.747906 7.937672 2.498882 -0.637946 25.490431 -5.556264 -4.259300 -32.742603 4.530646 1.410890 -15.972025 -14.724059 13.284453 35.195305 4.994293 5.514092 -22.882607 -8.006896 -0.559699 
8.143458 51.497890 -1.841969 -3.006075 -1.958011 -34.590641 23.407877 -4.445901 -3.141938 -20.717436 1.170906 -0.516628 -10.570670 -6.351380 -1.089528 8.949281 13.230560 -2.741227 2.424333 -4.683778 1.783845 -60.080536 -30.791348 61.116573 -61.923908 9.393107 13.272087 8.524705 12.647240 -47.815804 -2.738486 -1.140572 2.095526 51.029335 23.494417 17.971563 83.615791 -4.245067 25.080458 -8.534408 -12.637552 27.904156 8.253660 2.556264 -0.705227 25.278082 -5.570751 -4.223573 -32.801819 4.698272 1.505921 -15.995200 -14.813978 13.391445 34.809074 5.013318 5.456921 -22.763071 -8.419194 -0.673390 
8.011436 51.505714 -1.792048 -3.091905 -1.964173 -34.658966 23.551319 -4.376277 -3.233822 -20.717474 1.189713 -0.546394 -10.413790 -6.384250 -1.085307 8.472602 13.287484 -2.779262 2.424333 -4.683778 1.783845 -60.031845 -30.860252 60.412094 -62.340374 9.412537 13.453676 8.524705 12.647240 -46.477917 -2.738486 -1.140572 2.095526 49.723003 24.516989 15.822145 84.453407 -3.498455 25.897854 -8.534408 -12.637552 28.851419 8.605786 2.556441 -0.792109 25.066141 -5.580995 -4.196649 -32.870159 4.935039 1.666291 -16.075642 -14.956272 13.488847 34.451481 5.038790 5.403409 -22.525366 -8.762749 -0.733887 
7.873703 51.513535 -1.758967 -3.079410 -1.916161 -34.778851 23.567516 -4.333689 -3.369158 -20.737209 1.276418 -0.588030 -10.235078 -6.344524 -1.067286 8.066660 13.203315 -2.752450 2.424333 -4.683778 1.783845 -60.051147 -30.820969 59.699745 -62.489174 9.417632 13.525416 8.524705 12.647240 -46.419323 -2.738486 -1.140572 2.095526 48.265427 25.656034 13.784030 85.081924 -2.824187 26.653589 -8.534408 -12.637552 30.286964 8.778309 2.607141 -0.527487 24.886427 -5.580120 -4.170971 -32.712952 5.100363 1.700094 -16.340813 -15.045104 13.796986 34.122978 5.062097 5.371841 -22.282425 -9.162311 -0.815485 
7.736269 51.515331 -1.734608 -3.133133 -1.831594 -34.842587 23.722399 -4.352368 -3.584750 -20.835114 1.371737 -0.641603 -10.189933 -6.130202 -1.042637 7.840358 12.958844 -2.692311 2.424333 -4.683778 1.783845 -60.010624 -30.772594 59.073666 -62.489174 9.417632 13.525416 8.524705 12.647240 -46.790417 -2.738486 -1.140572 2.095526 46.785587 27.008381 11.526015 85.522957 -2.261398 27.360752 -8.534408 -12.637552 31.585793 8.928467 2.654673 -0.123168 24.742390 -5.599968 -4.152067 -32.412510 5.079510 1.607968 -16.580090 -15.194280 14.138680 33.815105 5.072332 5.356908 -21.993093 -9.643991 -0.897797 
7.601543 51.513229 -1.706640 -3.145448 -1.857865 -34.938866 23.915190 -4.253680 -3.587498 -20.922701 1.243574 -0.649909 -10.204570 -5.853435 -1.100469 7.618732 12.818438 -2.760476 2.424333 -4.683778 1.783845 -59.742386 -30.795099 58.758636 -62.562893 9.417390 13.552999 8.524705 12.647240 -46.995495 -2.738486 -1.140572 2.095526 45.492130 28.524809 8.791495 85.811577 -1.835806 27.993090 -8.534408 -12.637552 32.562355 9.101189 2.783481 0.024670 24.650827 -5.608112 -4.136064 -32.380692 5.016541 1.581393 -16.737261 -15.243616 14.368983 33.517529 5.091294 5.297501 -21.786135 -10.066611 -0.980770 
7.461102 51.514435 -1.684386 -3.069885 -1.920028 -35.033066 24.053497 -4.032786 -3.581874 -20.961693 1.213283 -0.669439 -10.155512 -5.852790 -1.106923 7.253005 12.968688 -2.788126 2.424333 -4.683778 1.783845 -59.624493 -30.894058 58.462410 -62.595131 9.418990 13.565029 8.524705 12.647240 -47.190804 -2.738486 -1.140572 2.095526 43.864910 30.206177 6.093741 85.992012 -1.540649 28.554026 -8.534408 -12.637552 33.656113 9.191840 2.967310 0.136007 24.519909 -5.612605 -4.114875 -32.371395 5.090680 1.613117 -16.977293 -15.182950 14.564769 33.257259 5.120986 5.263098 -21.615431 -10.530923 -1.093830 
7.318255 51.516834 -1.666042 -2.993475 -2.022492 -35.154709 24.260420 -3.773233 -3.479932 -20.912691 1.145521 -0.666500 -10.105865 -5.780327 -1.155844 6.591876 13.028764 -2.942752 2.424333 -4.683778 1.783845 -59.487835 -31.071342 58.165646 -62.713131 9.425437 13.623803 8.524705 12.647240 -47.317760 -2.738486 -1.140572 2.095526 42.091660 32.090523 3.341987 86.099396 -1.369102 29.017035 -8.534408 -12.637552 34.642437 9.323011 3.222184 0.364298 24.427979 -5.619135 -4.118040 -32.333477 5.005134 1.558135 -17.174049 -15.047027 14.847672 32.999599 5.130473 5.223794 -21.419258 -11.093144 -1.194664 
